<svg width="35" height="37" viewBox="0 0 35 37" fill="none" xmlns="http://www.w3.org/2000/svg">
<path d="M15.3856 20.0027L17.5002 18.4227L19.5783 20.0027C19.797 20.1742 20.0158 20.1865 20.2345 20.0395C20.4533 19.8925 20.5262 19.6843 20.4533 19.4148L19.6512 16.806L21.8752 15.079C22.0696 14.9076 22.1243 14.6993 22.0392 14.4544C21.9542 14.2094 21.7779 14.0869 21.5106 14.0869H18.8491L18.0106 11.3679C17.9377 11.0984 17.7736 10.9637 17.5184 10.9637C17.2632 10.9637 17.087 11.0984 16.9897 11.3679L16.1147 14.0869H13.4897C13.2224 14.0869 13.0462 14.2094 12.9611 14.4544C12.876 14.6993 12.9307 14.9076 13.1252 15.079L15.3491 16.806L14.547 19.4148C14.4741 19.6843 14.547 19.8925 14.7658 20.0395C14.9845 20.1865 15.1911 20.1742 15.3856 20.0027ZM10.3543 34.2227C10.0141 34.3452 9.68593 34.2962 9.36995 34.0757C9.05398 33.8553 8.896 33.5491 8.896 33.1571V23.5302C7.80225 22.3789 7.01839 21.1173 6.54443 19.7455C6.07048 18.3738 5.8335 16.9897 5.8335 15.5934C5.8335 12.262 6.95155 9.46943 9.18766 7.21579C11.4238 4.96215 14.1946 3.83533 17.5002 3.83533C20.8057 3.83533 23.5766 4.96215 25.8127 7.21579C28.0488 9.46943 29.1668 12.262 29.1668 15.5934C29.1668 16.9897 28.9299 18.3738 28.4559 19.7455C27.9819 21.1173 27.1981 22.3789 26.1043 23.5302V33.1571C26.1043 33.5491 25.9463 33.8553 25.6304 34.0757C25.3144 34.2962 24.9863 34.3452 24.646 34.2227L17.5002 31.7976L10.3543 34.2227ZM17.5002 25.1469C20.1495 25.1469 22.3917 24.2222 24.2267 22.3727C26.0618 20.5233 26.9793 18.2635 26.9793 15.5934C26.9793 12.9234 26.0618 10.6636 24.2267 8.81416C22.3917 6.9647 20.1495 6.03997 17.5002 6.03997C14.8509 6.03997 12.6087 6.9647 10.7736 8.81416C8.93853 10.6636 8.021 12.9234 8.021 15.5934C8.021 18.2635 8.93853 20.5233 10.7736 22.3727C12.6087 24.2222 14.8509 25.1469 17.5002 25.1469ZM11.0835 31.6139L17.5002 29.593L23.9168 31.6139V25.3306C22.9446 26.041 21.8995 26.5554 20.7814 26.8739C19.6634 27.1923 18.5696 27.3516 17.5002 27.3516C16.4307 27.3516 15.337 27.1923 14.2189 26.8739C13.1009 26.5554 12.0557 26.041 11.0835 25.3306V31.6139Z" fill="url(#paint0_linear_223_266)"/>
<defs>
<linearGradient id="paint0_linear_223_266" x1="17.5002" y1="3.83533" x2="17.5002" y2="34.2883" gradientUnits="userSpaceOnUse">
<stop stop-color="#DE7325"/>
<stop offset="1" stop-color="#C25708"/>
</linearGradient>
</defs>
</svg>
