<svg width="35" height="37" viewBox="0 0 35 37" fill="none" xmlns="http://www.w3.org/2000/svg">
<path d="M19.3595 33.1713C18.8005 33.1713 18.3934 32.9876 18.1382 32.6201C17.883 32.2527 17.8526 31.7995 18.047 31.2606L23.4064 16.9304C23.5522 16.5385 23.8196 16.2078 24.2085 15.9383C24.5974 15.6688 24.9984 15.5341 25.4116 15.5341C25.8248 15.5341 26.2319 15.6688 26.633 15.9383C27.034 16.2078 27.3075 16.5385 27.4533 16.9304L32.922 31.1136C33.1408 31.677 33.1165 32.1608 32.8491 32.565C32.5818 32.9692 32.1321 33.1713 31.5002 33.1713C31.2328 33.1713 30.9776 33.0856 30.7345 32.9141C30.4915 32.7426 30.3213 32.5222 30.2241 32.2527L29.021 28.5415H22.021L20.6356 32.2894C20.5384 32.5344 20.3682 32.7426 20.1252 32.9141C19.8821 33.0856 19.6269 33.1713 19.3595 33.1713ZM22.8231 25.9695H28.0002L25.4481 18.8411H25.3752L22.8231 25.9695ZM10.5366 13.403C10.9012 14.0399 11.3022 14.6584 11.7397 15.2585C12.1772 15.8587 12.6512 16.4772 13.1616 17.1141C14.2554 15.9628 15.1668 14.7686 15.896 13.5316C16.6252 12.2945 17.245 11.0023 17.7554 9.65506H2.91683C2.50364 9.65506 2.15728 9.51421 1.87777 9.2325C1.59825 8.9508 1.4585 8.60173 1.4585 8.1853C1.4585 7.76886 1.59825 7.41979 1.87777 7.13809C2.15728 6.85638 2.50364 6.71553 2.91683 6.71553H11.6668V5.24577C11.6668 4.82933 11.8066 4.48026 12.0861 4.19856C12.3656 3.91685 12.712 3.776 13.1252 3.776C13.5384 3.776 13.8847 3.91685 14.1642 4.19856C14.4437 4.48026 14.5835 4.82933 14.5835 5.24577V6.71553H23.3335C23.7467 6.71553 24.093 6.85638 24.3726 7.13809C24.6521 7.41979 24.7918 7.76886 24.7918 8.1853C24.7918 8.60173 24.6521 8.9508 24.3726 9.2325C24.093 9.51421 23.7467 9.65506 23.3335 9.65506H20.672C20.1373 11.3453 19.4264 13.0049 18.5392 14.6339C17.6521 16.2629 16.5644 17.8123 15.2762 19.282L18.8491 22.9197L17.7554 25.896L13.1252 21.4132L6.81787 27.7699C6.55051 28.0394 6.22238 28.1741 5.8335 28.1741C5.44461 28.1741 5.11648 28.0271 4.84912 27.7332C4.55745 27.4637 4.41162 27.133 4.41162 26.7411C4.41162 26.3491 4.55745 26.0062 4.84912 25.7122L11.2658 19.2453C10.6338 18.4859 10.0384 17.7204 9.47933 16.9488C8.9203 16.1771 8.40988 15.3871 7.94808 14.5788C7.65641 14.0399 7.63211 13.5744 7.87516 13.1825C8.11822 12.7906 8.55572 12.5946 9.18766 12.5946C9.45502 12.5946 9.71631 12.6742 9.97152 12.8334C10.2267 12.9927 10.4151 13.1825 10.5366 13.403Z" fill="url(#paint0_linear_223_274)"/>
<defs>
<linearGradient id="paint0_linear_223_274" x1="17.2641" y1="3.776" x2="17.2641" y2="33.1713" gradientUnits="userSpaceOnUse">
<stop stop-color="#DE7325"/>
<stop offset="1" stop-color="#C25708"/>
</linearGradient>
</defs>
</svg>
