<svg width="40" height="40" viewBox="0 0 40 40" fill="none" xmlns="http://www.w3.org/2000/svg">
<g clip-path="url(#clip0_223_242)">
<path d="M25 7.5C25.663 7.5 26.2989 7.76339 26.7678 8.23223C27.2366 8.70107 27.5 9.33696 27.5 10V30C27.5 30.663 27.2366 31.2989 26.7678 31.7678C26.2989 32.2366 25.663 32.5 25 32.5H15C14.337 32.5 13.7011 32.2366 13.2322 31.7678C12.7634 31.2989 12.5 30.663 12.5 30V10C12.5 9.33696 12.7634 8.70107 13.2322 8.23223C13.7011 7.76339 14.337 7.5 15 7.5H25ZM15 5C13.6739 5 12.4021 5.52678 11.4645 6.46447C10.5268 7.40215 10 8.67392 10 10V30C10 31.3261 10.5268 32.5979 11.4645 33.5355C12.4021 34.4732 13.6739 35 15 35H25C26.3261 35 27.5979 34.4732 28.5355 33.5355C29.4732 32.5979 30 31.3261 30 30V10C30 8.67392 29.4732 7.40215 28.5355 6.46447C27.5979 5.52678 26.3261 5 25 5H15Z" fill="url(#paint0_linear_223_242)"/>
<path d="M20 29.9999C20.6631 29.9999 21.2989 29.7365 21.7678 29.2677C22.2366 28.7988 22.5 28.163 22.5 27.4999C22.5 26.8369 22.2366 26.201 21.7678 25.7322C21.2989 25.2633 20.6631 24.9999 20 24.9999C19.337 24.9999 18.7011 25.2633 18.2323 25.7322C17.7634 26.201 17.5 26.8369 17.5 27.4999C17.5 28.163 17.7634 28.7988 18.2323 29.2677C18.7011 29.7365 19.337 29.9999 20 29.9999ZM3.99752 10.1449C4.14266 10.2217 4.27125 10.3263 4.37593 10.4529C4.48062 10.5794 4.55936 10.7252 4.60765 10.8822C4.65594 11.0391 4.67283 11.204 4.65737 11.3675C4.64191 11.531 4.59438 11.6898 4.51752 11.8349C3.18813 14.3509 2.49544 17.1543 2.50002 19.9999C2.50002 22.9499 3.23002 25.7299 4.51752 28.1649C4.67267 28.458 4.70505 28.8007 4.60753 29.1176C4.51001 29.4345 4.29058 29.6998 3.99752 29.8549C3.70446 30.0101 3.36176 30.0424 3.04482 29.9449C2.72789 29.8474 2.46267 29.628 2.30752 29.3349C0.78758 26.4584 -0.00466887 23.2533 2.06985e-05 19.9999C2.06985e-05 16.6324 0.835021 13.4524 2.30752 10.6649C2.38431 10.5198 2.48895 10.3912 2.61545 10.2865C2.74196 10.1818 2.88785 10.1031 3.04479 10.0548C3.20173 10.0065 3.36665 9.9896 3.53012 10.0051C3.69359 10.0205 3.85242 10.0681 3.99752 10.1449ZM36.0025 10.1449C36.1476 10.0681 36.3064 10.0205 36.4699 10.0051C36.6334 9.9896 36.7983 10.0065 36.9553 10.0548C37.1122 10.1031 37.2581 10.1818 37.3846 10.2865C37.5111 10.3912 37.6157 10.5198 37.6925 10.6649C39.2126 13.5414 40.0048 16.7465 40 19.9999C40.0048 23.2533 39.2126 26.4584 37.6925 29.3349C37.5374 29.628 37.2722 29.8474 36.9552 29.9449C36.6383 30.0424 36.2956 30.0101 36.0025 29.8549C35.7095 29.6998 35.49 29.4345 35.3925 29.1176C35.295 28.8007 35.3274 28.458 35.4825 28.1649C36.8119 25.6489 37.5046 22.8455 37.5 19.9999C37.5 17.0499 36.77 14.2699 35.4825 11.8349C35.4057 11.6898 35.3581 11.531 35.3427 11.3675C35.3272 11.204 35.3441 11.0391 35.3924 10.8822C35.4407 10.7252 35.5194 10.5794 35.6241 10.4529C35.7288 10.3263 35.8574 10.2217 36.0025 10.1449ZM7.64252 13.8349C7.79557 13.8946 7.93535 13.9838 8.05388 14.0976C8.17241 14.2113 8.26736 14.3473 8.3333 14.4978C8.39924 14.6482 8.43488 14.8102 8.43818 14.9744C8.44147 15.1387 8.41237 15.3019 8.35252 15.4549C7.78736 16.9035 7.49822 18.445 7.50002 19.9999C7.50002 21.6049 7.80002 23.1374 8.35002 24.5449C8.41978 24.6994 8.45739 24.8665 8.46055 25.036C8.46371 25.2055 8.43237 25.3739 8.36842 25.5309C8.30447 25.6879 8.20925 25.8302 8.08856 25.9492C7.96787 26.0683 7.82423 26.1615 7.66636 26.2233C7.5085 26.2851 7.33972 26.3142 7.17029 26.3087C7.00085 26.3032 6.8343 26.2633 6.68077 26.1914C6.52724 26.1195 6.38993 26.0172 6.2772 25.8906C6.16447 25.7639 6.07867 25.6157 6.02502 25.4549C5.34619 23.7164 4.99854 21.8663 5.00002 19.9999C5.00002 18.0774 5.36252 16.2374 6.02502 14.5449C6.14556 14.2364 6.38361 13.9884 6.68688 13.8553C6.99015 13.7221 7.33386 13.7148 7.64252 13.8349ZM32.3575 13.8349C32.5105 13.7751 32.6738 13.746 32.838 13.7493C33.0023 13.7526 33.1642 13.7882 33.3147 13.8541C33.4651 13.9201 33.6011 14.015 33.7149 14.1336C33.8286 14.2521 33.9178 14.3919 33.9775 14.5449C34.6375 16.2374 35 18.0774 35 19.9999C35 21.9224 34.6375 23.7624 33.975 25.4549C33.8431 25.747 33.6041 25.9773 33.3073 26.0982C33.0105 26.2191 32.6786 26.2213 32.3802 26.1045C32.0817 25.9877 31.8396 25.7608 31.7037 25.4705C31.5678 25.1803 31.5486 24.8489 31.65 24.5449C32.2 23.1374 32.5 21.6049 32.5 19.9999C32.5 18.3949 32.2 16.8624 31.65 15.4549C31.529 15.1463 31.5356 14.8022 31.6683 14.4984C31.8009 14.1946 32.0489 13.9559 32.3575 13.8349Z" fill="url(#paint1_linear_223_242)"/>
</g>
<defs>
<linearGradient id="paint0_linear_223_242" x1="20" y1="5" x2="20" y2="35" gradientUnits="userSpaceOnUse">
<stop stop-color="#DE7325"/>
<stop offset="1" stop-color="#C25708"/>
</linearGradient>
<linearGradient id="paint1_linear_223_242" x1="20" y1="9.99951" x2="20" y2="30.0002" gradientUnits="userSpaceOnUse">
<stop stop-color="#DE7325"/>
<stop offset="1" stop-color="#C25708"/>
</linearGradient>
<clipPath id="clip0_223_242">
<rect width="40" height="40" fill="white"/>
</clipPath>
</defs>
</svg>
