<svg width="40" height="40" viewBox="0 0 40 40" fill="none" xmlns="http://www.w3.org/2000/svg">
<path d="M36.6668 14.9666V29.9999C36.6668 31.8333 35.1668 33.3333 33.3335 33.3333H6.66683C4.8335 33.3333 3.3335 31.8333 3.3335 29.9999L3.35016 9.99992C3.35016 8.16658 4.8335 6.66659 6.66683 6.66659H23.5002C23.4002 7.19992 23.3335 7.76659 23.3335 8.33325C23.3335 8.89992 23.4002 9.46659 23.5002 9.99992H6.66683L20.0002 18.3333L26.1168 14.5166C26.9002 15.2333 27.8168 15.7833 28.8335 16.1499L20.0002 21.6666L6.66683 13.3333V29.9999H33.3335V16.4999C34.5668 16.2499 35.7002 15.6999 36.6668 14.9666ZM26.6668 8.33325C26.6668 11.0999 28.9002 13.3333 31.6668 13.3333C34.4335 13.3333 36.6668 11.0999 36.6668 8.33325C36.6668 5.56659 34.4335 3.33325 31.6668 3.33325C28.9002 3.33325 26.6668 5.56659 26.6668 8.33325Z" fill="url(#paint0_linear_223_240)"/>
<defs>
<linearGradient id="paint0_linear_223_240" x1="20.0002" y1="3.33325" x2="20.0002" y2="33.3333" gradientUnits="userSpaceOnUse">
<stop stop-color="#DE7325"/>
<stop offset="1" stop-color="#C25708"/>
</linearGradient>
</defs>
</svg>
