<svg width="40" height="40" viewBox="0 0 40 40" fill="none" xmlns="http://www.w3.org/2000/svg">
<path d="M16.9668 28.3466C17.1668 28.3466 17.3184 28.3399 17.4184 28.3266C17.5358 28.3029 17.6415 28.24 17.7184 28.1483C17.8184 28.0433 17.8684 27.8916 17.8684 27.6916L17.8618 26.7633C17.8568 26.1716 17.8551 25.7016 17.8551 25.3566L17.5418 25.4116C17.291 25.4511 17.0371 25.4667 16.7834 25.4583C16.4647 25.4526 16.147 25.4208 15.8334 25.3633C15.5007 25.3012 15.1876 25.1607 14.9201 24.9533C14.6397 24.7411 14.4305 24.4488 14.3201 24.1149L14.1834 23.7999C14.0685 23.5519 13.9241 23.3185 13.7534 23.1049C13.6002 22.8859 13.396 22.7075 13.1584 22.5849L13.0634 22.5183C12.998 22.4701 12.9387 22.4141 12.8868 22.3516C12.8364 22.2948 12.7948 22.2307 12.7634 22.1616C12.7368 22.0983 12.7584 22.0449 12.8301 22.0049C12.9559 21.9544 13.0916 21.9333 13.2268 21.9433L13.5001 21.9849C13.6834 22.0199 13.9084 22.1299 14.1768 22.3116C14.4434 22.4949 14.6651 22.7299 14.8384 23.0216C15.0484 23.3949 15.3001 23.6799 15.5968 23.8749C15.8586 24.0596 16.1697 24.1618 16.4901 24.1683C16.7901 24.1683 17.0501 24.1466 17.2684 24.1016C17.481 24.0575 17.6874 23.9881 17.8834 23.8949C17.9651 23.2866 18.1868 22.8166 18.5501 22.4899C18.0784 22.4433 17.611 22.3608 17.1518 22.2433C16.7034 22.1197 16.2723 21.9405 15.8684 21.7099C15.4455 21.4805 15.0717 21.1701 14.7684 20.7966C14.4784 20.4316 14.2401 19.9549 14.0518 19.3633C13.8554 18.6986 13.7616 18.0079 13.7734 17.3149C13.7734 16.2149 14.1334 15.2766 14.8518 14.5033C14.5151 13.6749 14.5468 12.7466 14.9468 11.7183C15.2118 11.6349 15.6034 11.6966 16.1218 11.9016C16.6401 12.1066 17.0218 12.2816 17.2618 12.4283C17.5034 12.5733 17.6951 12.6949 17.8418 12.7949C18.6954 12.5579 19.5775 12.439 20.4634 12.4416C21.3634 12.4416 22.2384 12.5583 23.0851 12.7966L23.6018 12.4683C23.9584 12.2516 24.3768 12.0499 24.8584 11.8683C25.3418 11.6849 25.7101 11.6349 25.9651 11.7183C26.3751 12.7466 26.4118 13.6749 26.0734 14.5016C26.7934 15.2766 27.1534 16.2133 27.1534 17.3149C27.1534 18.0883 27.0601 18.7733 26.8734 19.3699C26.6868 19.9666 26.4451 20.4433 26.1501 20.8033C25.8418 21.1731 25.4663 21.4813 25.0434 21.7116C24.6396 21.9423 24.2085 22.1214 23.7601 22.2449C23.3003 22.362 22.8323 22.4439 22.3601 22.4899C22.8334 22.8983 23.0701 23.5449 23.0701 24.4283V27.6899C23.0701 27.8449 23.0934 27.9699 23.1384 28.0666C23.1596 28.1126 23.1899 28.1539 23.2274 28.188C23.2649 28.2221 23.3089 28.2483 23.3568 28.2649C23.4568 28.2999 23.5468 28.3233 23.6234 28.3316C23.7018 28.3416 23.8118 28.3466 23.9568 28.3466H16.9684H16.9668Z" fill="url(#paint0_linear_223_236)"/>
<path d="M10.0002 6.66659C9.11611 6.66659 8.26826 7.01777 7.64314 7.6429C7.01802 8.26802 6.66683 9.11586 6.66683 9.99992V29.9999C6.66683 30.884 7.01802 31.7318 7.64314 32.3569C8.26826 32.9821 9.11611 33.3333 10.0002 33.3333H30.0002C30.8842 33.3333 31.7321 32.9821 32.3572 32.3569C32.9823 31.7318 33.3335 30.884 33.3335 29.9999V9.99992C33.3335 9.11586 32.9823 8.26802 32.3572 7.6429C31.7321 7.01777 30.8842 6.66659 30.0002 6.66659H10.0002ZM10.0002 3.33325H30.0002C31.7683 3.33325 33.464 4.03563 34.7142 5.28587C35.9644 6.53612 36.6668 8.23181 36.6668 9.99992V29.9999C36.6668 31.768 35.9644 33.4637 34.7142 34.714C33.464 35.9642 31.7683 36.6666 30.0002 36.6666H10.0002C8.23205 36.6666 6.53636 35.9642 5.28612 34.714C4.03588 33.4637 3.3335 31.768 3.3335 29.9999V9.99992C3.3335 8.23181 4.03588 6.53612 5.28612 5.28587C6.53636 4.03563 8.23205 3.33325 10.0002 3.33325V3.33325Z" fill="url(#paint1_linear_223_236)"/>
<defs>
<linearGradient id="paint0_linear_223_236" x1="19.9529" y1="11.6792" x2="19.9529" y2="28.3466" gradientUnits="userSpaceOnUse">
<stop stop-color="#DE7325"/>
<stop offset="1" stop-color="#C25708"/>
</linearGradient>
<linearGradient id="paint1_linear_223_236" x1="20.0002" y1="3.33325" x2="20.0002" y2="36.6666" gradientUnits="userSpaceOnUse">
<stop stop-color="#DE7325"/>
<stop offset="1" stop-color="#C25708"/>
</linearGradient>
</defs>
</svg>
