<svg width="40" height="40" viewBox="0 0 40 40" fill="none" xmlns="http://www.w3.org/2000/svg">
<path d="M28.3337 21.8832V28.0448H24.762V22.2948C24.762 20.8515 24.2453 19.8665 22.952 19.8665C21.9653 19.8665 21.377 20.5298 21.1187 21.1732C21.0253 21.4032 21.0003 21.7232 21.0003 22.0432V28.0448H17.427C17.427 28.0448 17.4753 18.3082 17.427 17.2998H21.0003V18.8215L20.977 18.8565H21.0003V18.8232C21.4753 18.0898 22.322 17.0465 24.2203 17.0465C26.5703 17.0465 28.3337 18.5832 28.3337 21.8832ZM13.6887 12.1182C12.467 12.1182 11.667 12.9215 11.667 13.9748C11.667 15.0082 12.4437 15.8332 13.642 15.8332H13.6653C14.912 15.8332 15.687 15.0065 15.687 13.9748C15.6637 12.9215 14.912 12.1182 13.6887 12.1182ZM11.8787 28.0448H15.452V17.2998H11.8787V28.0448Z" fill="url(#paint0_linear_223_232)"/>
<path d="M10.0002 6.66659C9.11611 6.66659 8.26826 7.01777 7.64314 7.6429C7.01802 8.26802 6.66683 9.11586 6.66683 9.99992V29.9999C6.66683 30.884 7.01802 31.7318 7.64314 32.3569C8.26826 32.9821 9.11611 33.3333 10.0002 33.3333H30.0002C30.8842 33.3333 31.7321 32.9821 32.3572 32.3569C32.9823 31.7318 33.3335 30.884 33.3335 29.9999V9.99992C33.3335 9.11586 32.9823 8.26802 32.3572 7.6429C31.7321 7.01777 30.8842 6.66659 30.0002 6.66659H10.0002ZM10.0002 3.33325H30.0002C31.7683 3.33325 33.464 4.03563 34.7142 5.28587C35.9644 6.53612 36.6668 8.23181 36.6668 9.99992V29.9999C36.6668 31.768 35.9644 33.4637 34.7142 34.714C33.464 35.9642 31.7683 36.6666 30.0002 36.6666H10.0002C8.23205 36.6666 6.53636 35.9642 5.28612 34.714C4.03588 33.4637 3.3335 31.768 3.3335 29.9999V9.99992C3.3335 8.23181 4.03588 6.53612 5.28612 5.28587C6.53636 4.03563 8.23205 3.33325 10.0002 3.33325V3.33325Z" fill="url(#paint1_linear_223_232)"/>
<defs>
<linearGradient id="paint0_linear_223_232" x1="20.0003" y1="12.1182" x2="20.0003" y2="28.0448" gradientUnits="userSpaceOnUse">
<stop stop-color="#DE7325"/>
<stop offset="1" stop-color="#C25708"/>
</linearGradient>
<linearGradient id="paint1_linear_223_232" x1="20.0002" y1="3.33325" x2="20.0002" y2="36.6666" gradientUnits="userSpaceOnUse">
<stop stop-color="#DE7325"/>
<stop offset="1" stop-color="#C25708"/>
</linearGradient>
</defs>
</svg>
