<svg width="40" height="40" viewBox="0 0 40 40" fill="none" xmlns="http://www.w3.org/2000/svg">
<path d="M20.0002 3.33333C13.5502 3.33333 8.3335 8.54999 8.3335 15C8.3335 23.75 20.0002 36.6667 20.0002 36.6667C20.0002 36.6667 31.6668 23.75 31.6668 15C31.6668 8.54999 26.4502 3.33333 20.0002 3.33333ZM11.6668 15C11.6668 10.4 15.4002 6.66666 20.0002 6.66666C24.6002 6.66666 28.3335 10.4 28.3335 15C28.3335 19.8 23.5335 26.9833 20.0002 31.4667C16.5335 27.0167 11.6668 19.75 11.6668 15Z" fill="#666666"/>
<path d="M20.0002 19.1667C22.3013 19.1667 24.1668 17.3012 24.1668 15C24.1668 12.6988 22.3013 10.8333 20.0002 10.8333C17.699 10.8333 15.8335 12.6988 15.8335 15C15.8335 17.3012 17.699 19.1667 20.0002 19.1667Z" fill="#666666"/>
</svg>
