<svg width="120" height="76" viewBox="0 0 120 76" fill="none" xmlns="http://www.w3.org/2000/svg">
<path d="M14.74 20.52V31H9.26V20.56L0.12 3.34H6.12L12.1 15.94L18.14 3.34H23.88L14.74 20.52ZM45.4644 6.84L46.7844 10.96C45.9844 11.24 45.0844 11.44 44.0844 11.56C43.0844 11.6667 41.9377 11.72 40.6444 11.72C41.9377 12.28 42.9177 12.9933 43.5844 13.86C44.2644 14.7133 44.6044 15.8 44.6044 17.12C44.6044 18.4933 44.251 19.72 43.5444 20.8C42.851 21.88 41.8577 22.7267 40.5644 23.34C39.2844 23.9533 37.7577 24.26 35.9844 24.26C35.4377 24.26 34.951 24.2333 34.5244 24.18C34.0977 24.1267 33.6844 24.0533 33.2844 23.96C33.0177 24.1067 32.811 24.32 32.6644 24.6C32.5177 24.88 32.4444 25.1667 32.4444 25.46C32.4444 25.86 32.5977 26.2067 32.9044 26.5C33.2244 26.78 33.9044 26.92 34.9444 26.92H38.5444C40.1044 26.92 41.471 27.1867 42.6444 27.72C43.831 28.24 44.751 28.9467 45.4044 29.84C46.071 30.7333 46.4044 31.76 46.4044 32.92C46.4044 35.0533 45.4777 36.72 43.6244 37.92C41.771 39.12 39.0644 39.72 35.5044 39.72C32.9577 39.72 30.971 39.46 29.5444 38.94C28.131 38.42 27.1377 37.66 26.5644 36.66C25.991 35.6733 25.7044 34.48 25.7044 33.08H30.4044C30.4044 33.76 30.5377 34.32 30.8044 34.76C31.0844 35.2 31.5977 35.5267 32.3444 35.74C33.1044 35.9533 34.191 36.06 35.6044 36.06C37.0177 36.06 38.1244 35.9467 38.9244 35.72C39.7377 35.4933 40.311 35.1667 40.6444 34.74C40.9777 34.3267 41.1444 33.84 41.1444 33.28C41.1444 32.52 40.8244 31.9267 40.1844 31.5C39.5444 31.0733 38.6377 30.86 37.4644 30.86H33.9644C31.831 30.86 30.2777 30.4467 29.3044 29.62C28.331 28.78 27.8444 27.8133 27.8444 26.72C27.8444 25.9733 28.0444 25.26 28.4444 24.58C28.8577 23.8867 29.4444 23.3 30.2044 22.82C28.8977 22.1267 27.951 21.3 27.3644 20.34C26.791 19.3667 26.5044 18.1933 26.5044 16.82C26.5044 15.2867 26.891 13.9533 27.6644 12.82C28.4377 11.6867 29.511 10.8067 30.8844 10.18C32.2577 9.55333 33.8377 9.24 35.6244 9.24C37.2644 9.25333 38.6577 9.15333 39.8044 8.94C40.9644 8.72667 41.9844 8.43333 42.8644 8.06C43.7577 7.68667 44.6244 7.28 45.4644 6.84ZM35.7244 12.76C34.471 12.76 33.511 13.1267 32.8444 13.86C32.191 14.5933 31.8644 15.5667 31.8644 16.78C31.8644 18.0333 32.2044 19.0267 32.8844 19.76C33.5644 20.4933 34.5177 20.86 35.7444 20.86C36.9577 20.86 37.8777 20.5067 38.5044 19.8C39.1444 19.08 39.4644 18.0533 39.4644 16.72C39.4644 15.3867 39.1444 14.3933 38.5044 13.74C37.8777 13.0867 36.951 12.76 35.7244 12.76ZM59.9888 9.22C62.0954 9.22 63.8821 9.68 65.3488 10.6C66.8154 11.52 67.9288 12.82 68.6888 14.5C69.4621 16.1667 69.8488 18.12 69.8488 20.36C69.8488 22.6533 69.4621 24.64 68.6888 26.32C67.9154 28 66.7954 29.3 65.3288 30.22C63.8621 31.14 62.0754 31.6 59.9688 31.6C57.8754 31.6 56.0888 31.1533 54.6088 30.26C53.1421 29.3533 52.0221 28.0667 51.2488 26.4C50.4754 24.72 50.0888 22.72 50.0888 20.4C50.0888 18.1867 50.4754 16.24 51.2488 14.56C52.0221 12.88 53.1488 11.5733 54.6288 10.64C56.1088 9.69333 57.8954 9.22 59.9888 9.22ZM59.9888 13.2C58.5088 13.2 57.4021 13.78 56.6688 14.94C55.9488 16.1 55.5888 17.92 55.5888 20.4C55.5888 22.9067 55.9488 24.74 56.6688 25.9C57.3888 27.0467 58.4888 27.62 59.9688 27.62C61.4488 27.62 62.5488 27.0467 63.2688 25.9C63.9888 24.74 64.3488 22.8933 64.3488 20.36C64.3488 17.8933 63.9888 16.0867 63.2688 14.94C62.5488 13.78 61.4554 13.2 59.9888 13.2ZM75.3731 31V27.34H78.3531V13.46H75.3731V9.82H82.3731L83.3531 14.68C84.1265 12.88 85.0998 11.5267 86.2731 10.62C87.4465 9.7 88.9198 9.24 90.6931 9.24C91.3731 9.24 91.9731 9.29333 92.4931 9.4C93.0265 9.50667 93.5331 9.64667 94.0131 9.82L92.4331 14.26C92.0198 14.1533 91.6265 14.0733 91.2531 14.02C90.8798 13.9533 90.4598 13.92 89.9931 13.92C88.5265 13.92 87.2465 14.4933 86.1531 15.64C85.0731 16.7733 84.2331 18.3133 83.6331 20.26V27.34H87.8531V31H75.3731ZM89.5531 18.08V12.46L90.2731 9.82H94.0131L93.0731 18.08H89.5531ZM6.3875 51.2375V56.325H12.7V58.85H6.3875V66H2.9625V48.7125H13.9125L13.55 51.2375H6.3875ZM22.5027 52.3875C23.8194 52.3875 24.9361 52.675 25.8527 53.25C26.7694 53.825 27.4652 54.6375 27.9402 55.6875C28.4236 56.7292 28.6652 57.95 28.6652 59.35C28.6652 60.7833 28.4236 62.025 27.9402 63.075C27.4569 64.125 26.7569 64.9375 25.8402 65.5125C24.9236 66.0875 23.8069 66.375 22.4902 66.375C21.1819 66.375 20.0652 66.0958 19.1402 65.5375C18.2236 64.9708 17.5236 64.1667 17.0402 63.125C16.5569 62.075 16.3152 60.825 16.3152 59.375C16.3152 57.9917 16.5569 56.775 17.0402 55.725C17.5236 54.675 18.2277 53.8583 19.1527 53.275C20.0777 52.6833 21.1944 52.3875 22.5027 52.3875ZM22.5027 54.875C21.5777 54.875 20.8861 55.2375 20.4277 55.9625C19.9777 56.6875 19.7527 57.825 19.7527 59.375C19.7527 60.9417 19.9777 62.0875 20.4277 62.8125C20.8777 63.5292 21.5652 63.8875 22.4902 63.8875C23.4152 63.8875 24.1027 63.5292 24.5527 62.8125C25.0027 62.0875 25.2277 60.9333 25.2277 59.35C25.2277 57.8083 25.0027 56.6792 24.5527 55.9625C24.1027 55.2375 23.4194 54.875 22.5027 54.875ZM31.993 66V52.7625H34.868L35.1055 54.4C35.6721 53.7333 36.3096 53.2333 37.018 52.9C37.7263 52.5583 38.4888 52.3875 39.3055 52.3875C40.4971 52.3875 41.4055 52.7333 42.0305 53.425C42.6555 54.1083 42.968 55.0708 42.968 56.3125V66H39.668V57.6C39.668 56.9333 39.6263 56.4 39.543 56C39.4596 55.5917 39.3013 55.3 39.068 55.125C38.8346 54.9417 38.4971 54.85 38.0555 54.85C37.6971 54.85 37.3513 54.9292 37.018 55.0875C36.693 55.2458 36.3846 55.4583 36.093 55.725C35.8096 55.9917 35.543 56.2875 35.293 56.6125V66H31.993ZM58.4082 65.2625C57.9165 65.5875 57.3207 65.8542 56.6207 66.0625C55.9207 66.2708 55.1624 66.375 54.3457 66.375C52.729 66.375 51.5124 65.9583 50.6957 65.125C49.879 64.2833 49.4707 63.1667 49.4707 61.775V55.1H46.5957V52.7625H49.4707V49.85L52.7707 49.45V52.7625H57.1457L56.8082 55.1H52.7707V61.7625C52.7707 62.4458 52.9374 62.9458 53.2707 63.2625C53.604 63.5792 54.1415 63.7375 54.8832 63.7375C55.3582 63.7375 55.7915 63.6833 56.1832 63.575C56.5832 63.4583 56.9457 63.3125 57.2707 63.1375L58.4082 65.2625ZM62.1859 59.4875V56.8625H72.7359V59.4875H62.1859ZM80.9887 51.2375V55.975H87.1137V58.4625H80.9887V63.4875H88.4262V66H77.5637V48.7125H88.3387L87.9887 51.2375H80.9887ZM91.9539 66V52.7625H94.8289L95.0664 54.4C95.6331 53.7333 96.2706 53.2333 96.9789 52.9C97.6872 52.5583 98.4497 52.3875 99.2664 52.3875C100.458 52.3875 101.366 52.7333 101.991 53.425C102.616 54.1083 102.929 55.0708 102.929 56.3125V66H99.6289V57.6C99.6289 56.9333 99.5872 56.4 99.5039 56C99.4206 55.5917 99.2622 55.3 99.0289 55.125C98.7956 54.9417 98.4581 54.85 98.0164 54.85C97.6581 54.85 97.3122 54.9292 96.9789 55.0875C96.6539 55.2458 96.3456 55.4583 96.0539 55.725C95.7706 55.9917 95.5039 56.2875 95.2539 56.6125V66H91.9539ZM114.619 47.125L117.919 47.475V66H114.994L114.794 64.4375C114.386 65.0208 113.873 65.4917 113.257 65.85C112.64 66.2 111.923 66.375 111.107 66.375C109.99 66.375 109.065 66.0833 108.332 65.5C107.607 64.9167 107.065 64.1 106.707 63.05C106.357 61.9917 106.182 60.7625 106.182 59.3625C106.182 58.0125 106.39 56.8125 106.807 55.7625C107.223 54.7125 107.823 53.8875 108.607 53.2875C109.398 52.6875 110.336 52.3875 111.419 52.3875C112.069 52.3875 112.661 52.5 113.194 52.725C113.727 52.95 114.202 53.2833 114.619 53.725V47.125ZM112.307 54.85C111.473 54.85 110.815 55.2125 110.332 55.9375C109.857 56.6542 109.619 57.8 109.619 59.375C109.619 60.4833 109.719 61.3708 109.919 62.0375C110.119 62.6958 110.402 63.1708 110.769 63.4625C111.136 63.7542 111.569 63.9 112.069 63.9C112.619 63.9 113.102 63.7375 113.519 63.4125C113.944 63.0792 114.311 62.6667 114.619 62.175V56.15C114.311 55.7417 113.965 55.425 113.582 55.2C113.207 54.9667 112.782 54.85 112.307 54.85Z" fill="#141414"/>
<path d="M103.798 27.46C103.798 26.7133 103.978 26.0267 104.338 25.4C104.711 24.7733 105.211 24.2733 105.838 23.9C106.464 23.5267 107.158 23.34 107.918 23.34C108.691 23.34 109.391 23.5267 110.018 23.9C110.644 24.2733 111.138 24.7733 111.498 25.4C111.871 26.0267 112.058 26.7133 112.058 27.46C112.058 28.2067 111.871 28.9 111.498 29.54C111.138 30.1667 110.644 30.6667 110.018 31.04C109.391 31.4133 108.691 31.6 107.918 31.6C107.158 31.6 106.464 31.4133 105.838 31.04C105.211 30.6667 104.711 30.1667 104.338 29.54C103.978 28.9 103.798 28.2067 103.798 27.46Z" fill="#71B8B6"/>
<rect x="51" y="35" width="69" height="6" rx="3" fill="url(#paint0_linear_223_392)"/>
<defs>
<linearGradient id="paint0_linear_223_392" x1="51" y1="38" x2="120" y2="38" gradientUnits="userSpaceOnUse">
<stop stop-color="#DE7325"/>
<stop offset="1" stop-color="#AD500D"/>
</linearGradient>
</defs>
</svg>
