<svg width="59" height="50" viewBox="0 0 59 50" fill="none" xmlns="http://www.w3.org/2000/svg">
<rect width="56" height="50" rx="20" fill="white"/>
<path d="M22.792 20.616V29H18.408V20.648L11.096 6.872H15.896L20.68 16.952L25.512 6.872H30.104L22.792 20.616Z" fill="#141414"/>
<path d="M36.4755 26.168C36.4755 25.5707 36.6195 25.0213 36.9075 24.52C37.2062 24.0187 37.6062 23.6187 38.1075 23.32C38.6088 23.0213 39.1635 22.872 39.7715 22.872C40.3902 22.872 40.9502 23.0213 41.4515 23.32C41.9528 23.6187 42.3475 24.0187 42.6355 24.52C42.9342 25.0213 43.0835 25.5707 43.0835 26.168C43.0835 26.7653 42.9342 27.32 42.6355 27.832C42.3475 28.3333 41.9528 28.7333 41.4515 29.032C40.9502 29.3307 40.3902 29.48 39.7715 29.48C39.1635 29.48 38.6088 29.3307 38.1075 29.032C37.6062 28.7333 37.2062 28.3333 36.9075 27.832C36.6195 27.32 36.4755 26.7653 36.4755 26.168Z" fill="#71B8B6"/>
<rect x="7" y="33" width="41" height="6" rx="3" fill="url(#paint0_linear_277_20)"/>
<defs>
<linearGradient id="paint0_linear_277_20" x1="7" y1="36" x2="48" y2="36" gradientUnits="userSpaceOnUse">
<stop stop-color="#DE7325"/>
<stop offset="1" stop-color="#AD500D"/>
</linearGradient>
</defs>
</svg>
