<svg width="74" height="80" viewBox="0 0 74 80" fill="none" xmlns="http://www.w3.org/2000/svg">
<rect width="74" height="80" rx="4" fill="white"/>
<path d="M26.1345 27.52V38H20.6545V27.56L11.5145 10.34H17.5145L23.4945 22.94L29.5345 10.34H35.2745L26.1345 27.52ZM6.577 57.733V60.582H10.112V61.996H6.577V66H4.659V56.319H10.791L10.588 57.733H6.577ZM15.6015 58.377C16.3389 58.377 16.9642 58.538 17.4775 58.86C17.9909 59.182 18.3805 59.637 18.6465 60.225C18.9172 60.8083 19.0525 61.492 19.0525 62.276C19.0525 63.0787 18.9172 63.774 18.6465 64.362C18.3759 64.95 17.9839 65.405 17.4705 65.727C16.9572 66.049 16.3319 66.21 15.5945 66.21C14.8619 66.21 14.2365 66.0537 13.7185 65.741C13.2052 65.4237 12.8132 64.9733 12.5425 64.39C12.2719 63.802 12.1365 63.102 12.1365 62.29C12.1365 61.5153 12.2719 60.834 12.5425 60.246C12.8132 59.658 13.2075 59.2007 13.7255 58.874C14.2435 58.5427 14.8689 58.377 15.6015 58.377ZM15.6015 59.77C15.0835 59.77 14.6962 59.973 14.4395 60.379C14.1875 60.785 14.0615 61.422 14.0615 62.29C14.0615 63.1673 14.1875 63.809 14.4395 64.215C14.6915 64.6163 15.0765 64.817 15.5945 64.817C16.1125 64.817 16.4975 64.6163 16.7495 64.215C17.0015 63.809 17.1275 63.1627 17.1275 62.276C17.1275 61.4127 17.0015 60.7803 16.7495 60.379C16.4975 59.973 16.1149 59.77 15.6015 59.77ZM20.9161 66V58.587H22.5261L22.6591 59.504C22.9764 59.1307 23.3334 58.8507 23.7301 58.664C24.1267 58.4727 24.5537 58.377 25.0111 58.377C25.6784 58.377 26.1871 58.5707 26.5371 58.958C26.8871 59.3407 27.0621 59.8797 27.0621 60.575V66H25.2141V61.296C25.2141 60.9227 25.1907 60.624 25.1441 60.4C25.0974 60.1713 25.0087 60.008 24.8781 59.91C24.7474 59.8073 24.5584 59.756 24.3111 59.756C24.1104 59.756 23.9167 59.8003 23.7301 59.889C23.5481 59.9777 23.3754 60.0967 23.2121 60.246C23.0534 60.3953 22.9041 60.561 22.7641 60.743V66H20.9161ZM35.7086 65.587C35.4333 65.769 35.0996 65.9183 34.7076 66.035C34.3156 66.1517 33.8909 66.21 33.4336 66.21C32.5283 66.21 31.8469 65.9767 31.3896 65.51C30.9323 65.0387 30.7036 64.4133 30.7036 63.634V59.896H29.0936V58.587H30.7036V56.956L32.5516 56.732V58.587H35.0016L34.8126 59.896H32.5516V63.627C32.5516 64.0097 32.6449 64.2897 32.8316 64.467C33.0183 64.6443 33.3193 64.733 33.7346 64.733C34.0006 64.733 34.2433 64.7027 34.4626 64.642C34.6866 64.5767 34.8896 64.495 35.0716 64.397L35.7086 65.587ZM37.8241 62.353V60.883H43.7321V62.353H37.8241ZM48.3537 57.733V60.386H51.7837V61.779H48.3537V64.593H52.5187V66H46.4357V56.319H52.4697L52.2737 57.733H48.3537ZM54.4942 66V58.587H56.1042L56.2372 59.504C56.5545 59.1307 56.9115 58.8507 57.3082 58.664C57.7049 58.4727 58.1319 58.377 58.5892 58.377C59.2565 58.377 59.7652 58.5707 60.1152 58.958C60.4652 59.3407 60.6402 59.8797 60.6402 60.575V66H58.7922V61.296C58.7922 60.9227 58.7689 60.624 58.7222 60.4C58.6755 60.1713 58.5869 60.008 58.4562 59.91C58.3255 59.8073 58.1365 59.756 57.8892 59.756C57.6885 59.756 57.4949 59.8003 57.3082 59.889C57.1262 59.9777 56.9535 60.0967 56.7902 60.246C56.6315 60.3953 56.4822 60.561 56.3422 60.743V66H54.4942ZM67.1867 55.43L69.0347 55.626V66H67.3967L67.2847 65.125C67.0561 65.4517 66.7691 65.7153 66.4237 65.916C66.0784 66.112 65.6771 66.21 65.2197 66.21C64.5944 66.21 64.0764 66.0467 63.6657 65.72C63.2597 65.3933 62.9564 64.936 62.7557 64.348C62.5597 63.7553 62.4617 63.067 62.4617 62.283C62.4617 61.527 62.5784 60.855 62.8117 60.267C63.0451 59.679 63.3811 59.217 63.8197 58.881C64.2631 58.545 64.7881 58.377 65.3947 58.377C65.7587 58.377 66.0901 58.44 66.3887 58.566C66.6874 58.692 66.9534 58.8787 67.1867 59.126V55.43ZM65.8917 59.756C65.4251 59.756 65.0564 59.959 64.7857 60.365C64.5197 60.7663 64.3867 61.408 64.3867 62.29C64.3867 62.9107 64.4427 63.4077 64.5547 63.781C64.6667 64.1497 64.8254 64.4157 65.0307 64.579C65.2361 64.7423 65.4787 64.824 65.7587 64.824C66.0667 64.824 66.3374 64.733 66.5707 64.551C66.8087 64.3643 67.0141 64.1333 67.1867 63.858V60.484C67.0141 60.2553 66.8204 60.078 66.6057 59.952C66.3957 59.8213 66.1577 59.756 65.8917 59.756Z" fill="#141414"/>
<path d="M43.2389 34.46C43.2389 33.7133 43.4189 33.0267 43.7789 32.4C44.1522 31.7733 44.6522 31.2733 45.2789 30.9C45.9056 30.5267 46.5989 30.34 47.3589 30.34C48.1322 30.34 48.8322 30.5267 49.4589 30.9C50.0856 31.2733 50.5789 31.7733 50.9389 32.4C51.3122 33.0267 51.4989 33.7133 51.4989 34.46C51.4989 35.2067 51.3122 35.9 50.9389 36.54C50.5789 37.1667 50.0856 37.6667 49.4589 38.04C48.8322 38.4133 48.1322 38.6 47.3589 38.6C46.5989 38.6 45.9056 38.4133 45.2789 38.04C44.6522 37.6667 44.1522 37.1667 43.7789 36.54C43.4189 35.9 43.2389 35.2067 43.2389 34.46Z" fill="#71B8B6"/>
<rect x="3" y="44" width="66" height="6" rx="3" fill="url(#paint0_linear_266_2)"/>
<defs>
<linearGradient id="paint0_linear_266_2" x1="3" y1="47" x2="69" y2="47" gradientUnits="userSpaceOnUse">
<stop stop-color="#DE7325"/>
<stop offset="1" stop-color="#AD500D"/>
</linearGradient>
</defs>
</svg>
